<?xml version="1.0" encoding="UTF-8" standalone="no"?>
<!-- Created with Inkscape (http://www.inkscape.org/) -->

<svg
   xmlns:dc="http://purl.org/dc/elements/1.1/"
   xmlns:cc="http://creativecommons.org/ns#"
   xmlns:rdf="http://www.w3.org/1999/02/22-rdf-syntax-ns#"
   xmlns:svg="http://www.w3.org/2000/svg"
   xmlns="http://www.w3.org/2000/svg"
   xmlns:sodipodi="http://sodipodi.sourceforge.net/DTD/sodipodi-0.dtd"
   xmlns:inkscape="http://www.inkscape.org/namespaces/inkscape"
   width="141.11111mm"
   height="116.55777mm"
   viewBox="0 0 500.00001 412.99997"
   id="svg2"
   version="1.1"
   inkscape:version="0.91 r13725"
   sodipodi:docname="bem.svg">
  <defs
     id="defs4" />
  <sodipodi:namedview
     id="base"
     pagecolor="#ffffff"
     bordercolor="#666666"
     borderopacity="1.0"
     inkscape:pageopacity="0.0"
     inkscape:pageshadow="2"
     inkscape:zoom="1"
     inkscape:cx="146.86936"
     inkscape:cy="243.42263"
     inkscape:document-units="px"
     inkscape:current-layer="layer1"
     showgrid="false"
     fit-margin-top="0"
     fit-margin-left="0"
     fit-margin-right="0"
     fit-margin-bottom="0"
     inkscape:window-width="1366"
     inkscape:window-height="719"
     inkscape:window-x="0"
     inkscape:window-y="25"
     inkscape:window-maximized="1" />
  <metadata
     id="metadata7">
    <rdf:RDF>
      <cc:Work
         rdf:about="">
        <dc:format>image/svg+xml</dc:format>
        <dc:type
           rdf:resource="http://purl.org/dc/dcmitype/StillImage" />
        <dc:title></dc:title>
      </cc:Work>
    </rdf:RDF>
  </metadata>
  <g
     inkscape:label="Layer 1"
     inkscape:groupmode="layer"
     id="layer1"
     transform="translate(-112.85713,-600.14793)">
    <path
       style="fill:#000000"
       d="m 445.35713,1012.5221 c -10.47943,-2.0636 -13.69705,-2.9332 -18.17819,-4.9129 -6.65397,-2.9397 -13.84727,-9.5913 -16.91131,-15.63788 -1.81983,-3.59127 -2.4105,-6.36633 -2.4105,-11.32494 l 0,-6.56804 2.96478,3.3767 c 3.87914,4.41809 12.98666,9.20263 22.72127,11.93637 7.72181,2.1685 8.82507,2.19823 93.56395,2.5221 l 85.75,0.32772 0,10.45337 0,10.4533 -82.75,-0.116 c -45.5125,-0.064 -83.65,-0.2932 -84.75,-0.5098 z m -13.1738,-39.85623 c -8.91242,-1.617 -17.57766,-5.50511 -21.40851,-9.60606 -2.49169,-2.66735 -2.91769,-3.92682 -2.91769,-8.62604 l 0,-5.50266 2.75,0.74 c 1.5125,0.40699 4.55,1.20547 6.75,1.77438 2.56761,0.66398 38.28787,1.16915 99.75,1.41071 l 95.75,0.37631 0,10.45771 0,10.45771 -86.75,-0.0903 c -66.56383,-0.0692 -88.4193,-0.39311 -93.9238,-1.39181 z m -319.3262,-35.97464 0,-17.4567 114.75,-0.35973 c 86.2191,-0.27028 116.59467,-0.67276 122.16919,-1.61874 24.87946,-4.22199 39.55401,-10.52785 50.94364,-21.89118 l 7.36283,-7.34584 -0.41546,10.81445 c -0.37798,9.83907 -0.71421,11.40069 -3.72798,17.31444 -11.83852,23.23011 -32.03616,34.24221 -67.764,36.9461 -8.35979,0.63267 -55.19628,1.04737 -118.56822,1.04983 l -104.75,0.004 0,-17.4567 z m 0,-63.9391 0,-17.4941 128.75,-0.40585 c 142.5259,-0.44928 140.32336,-0.35152 164,-7.27917 2.18506,-0.63934 2.25,-0.45179 2.25,6.49813 0,5.09341 -0.55568,8.24569 -1.92758,10.93484 -5.69229,11.1578 -23.03847,19.47267 -48.57242,23.28314 -5.73083,0.85522 -41.54112,1.3021 -126.25,1.57548 l -118.25,0.38164 0,-17.49411 z m 289.67425,-39.83006 c -15.84433,-5.89369 -37.64647,-6.74353 -173.42425,-6.76002 l -116.25,-0.0141 0,-17.55951 0,-17.55951 117.75,0.40358 c 84.61021,0.29 120.00154,0.74139 125.75,1.60386 27.01411,4.05304 42.31755,11.11862 49.08187,22.66106 2.16704,3.69778 2.46576,5.27086 2.21177,11.64745 l -0.29364,7.37227 -4.82575,-1.79506 z m 0.46195,-44.83685 c -11.81554,-13.73496 -33.83855,-22.21136 -64.6362,-24.87773 -7.34878,-0.63624 -53.37649,-1.04292 -118.75,-1.04924 l -106.75,-0.0103 0,-17 0,-17 113.25,0.0198 c 70.37687,0.0123 115.9,0.3999 120.25,1.02384 12.23579,1.75501 19.72913,3.99313 30,8.96044 12.73483,6.15896 20.79432,13.84236 26.52405,25.28632 4.63633,9.26011 5.18266,11.76985 4.78127,21.96458 l -0.30532,7.75499 -4.3638,-5.07269 z m -290.1362,-106.93729 0,-17 58.5,0 58.5,0 0,17 0,17 -58.5,0 -58.5,0 0,-17 z m 0,-63.5 0,-17.5 58.5,0 58.5,0 0,17.5 0,17.5 -58.5,0 -58.5,0 0,-17.5 z"
       id="path3401"
       inkscape:connector-curvature="0" />
  </g>
</svg>
